<?xml version="1.0" encoding="UTF-8"?>
<svg id="Layer_2" data-name="Layer 2" xmlns="http://www.w3.org/2000/svg" width="65.7644" height="22.218" viewBox="0 0 65.7644 22.218">
  <g id="Layer_1-2" data-name="Layer 1">
    <g>
      <g>
        <path d="m5.5114,21.7814v-1.0976c0-.0671-.0272-.1148-.085-.1488-.7997-.4728-1.5384-1.046-2.1952-1.7027-2.0758-2.0759-3.2312-4.8651-3.2312-7.8007S1.1557,5.3067,3.2312,3.2312,8.0963,0,11.0316,0s5.7249,1.1554,7.8007,3.2312c1.4388,1.4389,2.463,3.2417,2.9282,5.2231l.2803,1.194,1.3595,5.6248c.0286.1179.0108.2299-.0536.333-.064.1032-.1564.169-.2752.1956l-3.2012.7186c-.0822.0184-.1349.0845-.1349.1687v3.3369c0,.2407-.1962.4368-.4368.4368h-2.5963c-.0828,0-.1502.0675-.1502.1503v1.1684c0,.2404-.1962.4366-.4368.4366h-1.1089c-.2407,0-.4369-.1962-.4369-.4366v-2.8644c0-.2407.1962-.4365.4369-.4365h2.5735c.0947,0,.1729-.0783.1729-.1729v-2.9869c0-.2067.1395-.3807.341-.4261l2.8483-.6394c.051-.0114.0814-.0329.1089-.0774.0277-.0445.0337-.0808.0212-.1318l-1.0573-4.3733-.1633-.6747c-.4-1.6483-1.2206-3.1649-2.4211-4.3653-1.7024-1.7025-3.9911-2.6504-6.3989-2.6504s-4.6964.9479-6.3989,2.6504-2.6504,3.9911-2.6504,6.3989.9479,4.6964,2.6504,6.3989c.7546.7546,1.639,1.3726,2.6076,1.8201.1581.0732.2534.2223.2534.3966v2.1342c0,.2404-.1962.4366-.4365.4366h-1.1092c-.2404,0-.4366-.1962-.4366-.4366Z" fill="#4494f5" fill-rule="evenodd"/>
        <path d="m5.334,11.4455l-.0006-.0006-.0079-.0077-.008-.0079-.0079-.0079-.0079-.008-.0077-.0079-.0076-.0085-.0074-.008-.0077-.0087-.0068-.008-.0073-.0091-.0068-.0079-.0071-.0091-.0063-.0082-.0071-.0093-.0059-.0083-.0071-.0096-.0057-.0079-.0065-.01-.0054-.0082-.0065-.0102-.0051-.0079-.0062-.0105-.0048-.0079-.006-.0105-.0045-.0082-.006-.0108-.0042-.008-.0057-.011-.004-.0082-.0054-.0111-.0037-.0079-.0051-.0116-.0034-.008-.0048-.0116-.0034-.0079-.0045-.0117-.0028-.0082-.0046-.0116-.0028-.0082-.004-.0119-.0025-.008-.0037-.0122-.0023-.0079-.0037-.0125-.002-.0079-.0051-.0204-.0031-.0125-.0017-.0079-.0025-.0125-.0014-.0079-.0023-.0128-.0014-.0079-.002-.0128-.0011-.0079-.0018-.0128-.0008-.0079-.0014-.0128-.0009-.0079-.0011-.013-.0006-.008-.0008-.013-.0003-.008-.0006-.0127v-.008l-.0003-.013v-.0079l.0003-.0131v-.0079l.0006-.0128.0003-.0079.0008-.013.0006-.008.0011-.0127.0009-.008.0014-.013.0008-.0079.0018-.0128.0011-.0079.002-.0128.0014-.0079.0023-.0128.0014-.0079.0025-.0125.0017-.0079.0031-.0125.0017-.0079.0034-.0125.002-.008.0037-.0124.0023-.008.0037-.0121.0025-.008.004-.0119.0028-.0079.0046-.0119.0028-.008.0045-.0119.0034-.0079.0048-.0116.0034-.008.0051-.0116.0037-.0076.0054-.0114.004-.0079.0057-.0114.0042-.0076.006-.0111.0045-.0079.006-.0108.0048-.0079.0062-.0105.0051-.0079.0065-.0102.0054-.008.0122-.0178.0071-.01.0059-.0079.0071-.0096.0063-.008.0139-.0173.0073-.009.0068-.0077.0304-.0332.0079-.0082.0079-.0076.008-.0083,3.4231-3.2887c.3467-.3334.898-.3226,1.2314.0241.3333.3464.3225.8977-.0241,1.2311l-2.7698,2.6611,2.7698,2.6612c.3466.3334.3574.8847.0241,1.2314-.3334.3464-.8847.3571-1.2314.0238l-3.4146-3.2805h0Zm11.3952,0l-3.4146,3.2805c-.3464.3333-.8977.3226-1.2311-.0238-.3333-.3467-.3225-.898.0239-1.2314l2.77-2.6612-2.77-2.6611c-.3464-.3334-.3572-.8847-.0239-1.2311.3334-.3467.8847-.3575,1.2311-.0241l3.4232,3.2887.0079.0083.0079.0076.008.0082.0303.0332.0068.0077.0074.009c.0235.0287.0448.0581.0643.0888l.0051.0079.0063.0105.0048.0079.0062.0108.0045.0079.0057.0111.0043.0076.0056.0114.004.0079.0054.0114.0037.0076.0051.0116.0034.008.0048.0116.0034.0079.0045.0119.0032.008.0042.0119.0028.0079.004.0119.0026.008.0036.0121.0026.008.0034.0124.0023.008.0031.0125.002.0079.0028.0125.0017.0079.0026.0125.0017.0079.0022.0128.0014.0079.0017.0128.0029.0207.0011.0079.0014.013.0006.008.0011.0127.0006.008.0008.013.0003.0079.0006.0128.0003.0079v.034l-.0003.008-.0006.0127-.0003.008-.0008.013-.0006.008-.0011.013-.0006.0079-.0014.0128-.0011.0079-.0029.0207-.0017.0128-.0014.0079-.0022.0128-.0017.0079-.0026.0125-.0017.0079-.0028.0125-.002.0082-.0031.0122-.0023.0079-.0034.0125-.0026.0079-.0036.0122-.0026.008-.004.0119-.0028.0082-.0042.0116-.0032.0082-.0045.0117-.0034.0079-.0048.0116-.0034.008-.0051.0116-.0037.0079-.0054.0111-.004.0082-.0056.011-.0043.008-.0057.0108-.0045.0082-.0062.0105-.0048.0079-.0063.0105-.0051.0079-.0119.0184-.0065.01-.0057.0079-.0068.0096-.0062.0083-.0068.0093-.0065.0082-.0071.0091-.0068.0079-.0074.0091-.0068.008-.0077.0087-.0073.008-.0077.0085-.0076.0079-.008.008-.0079.0079-.0079.0079-.008.0077-.0006.0006Z" fill="#4494f5" fill-rule="evenodd"/>
      </g>
      <path d="m31.7427,11.3026c1.1956,0,1.9856-.3524,2.658-.9394.1602-.1281.2775-.3311.2775-.5871,0-.4164-.352-.758-.7684-.758-.1815,0-.3524.0641-.491.1815-.47.3736-.9289.587-1.6228.587-1.281,0-2.1671-1.0675-2.1671-2.3485v-.0212c0-1.2813.9073-2.3273,2.1671-2.3273.5978,0,1.0675.1922,1.5267.5338.1174.0745.2667.1601.491.1601.4589,0,.8112-.3415.8112-.8008,0-.2882-.1494-.523-.3203-.6511-.6298-.4589-1.3771-.758-2.4979-.758-2.2952,0-3.8965,1.7402-3.8965,3.8645v.0213c0,2.1458,1.6333,3.8432,3.8325,3.8432h0Zm6.9066,0c1.783,0,3.1068-1.3346,3.1068-2.9784v-.0215c0-1.6546-1.3238-2.9568-3.0853-2.9568-1.7827,0-3.1065,1.3342-3.1065,2.9783v.0213c0,1.6546,1.3238,2.9571,3.085,2.9571h0Zm.0215-1.3986c-.8969,0-1.5052-.7365-1.5052-1.5798v-.0215c0-.8538.5551-1.5585,1.4837-1.5585.8969,0,1.5055.7367,1.5055,1.58v.0213c0,.8541-.5553,1.5585-1.484,1.5585h0Zm10.0134-5.7753c0-.459-.3523-.8113-.8115-.8113s-.8113.3523-.8113.8113v2.071c-.3841-.459-.9179-.8538-1.7827-.8538-1.3558,0-2.6048,1.0459-2.6048,2.9568v.0215c0,1.9109,1.2705,2.9571,2.6048,2.9571.854,0,1.3878-.3844,1.7827-.9289v.0748c0,.459.3523.8113.8113.8113s.8115-.3523.8115-.8113v-6.2985h0Zm-2.9891,2.5942c.758,0,1.3878.6299,1.3878,1.5798v.0215c0,.9502-.6298,1.5798-1.3878,1.5798s-1.3986-.6296-1.3986-1.5798v-.0215c0-.9607.6406-1.5798,1.3986-1.5798h0Zm4.4195-2.6155c0,.4697.3948.7688.9073.7688s.9074-.2991.9074-.7688v-.0213c0-.4697-.3951-.7579-.9074-.7579s-.9073.2882-.9073.7579v.0213h0Zm.0958,6.3198c0,.459.3523.8113.8115.8113s.8113-.3523.8113-.8113v-4.2275c0-.459-.3523-.8113-.8113-.8113s-.8115.3523-.8115.8113v4.2275h0Zm3.1493,0c0,.459.3523.8113.8113.8113s.8112-.3523.8112-.8113v-2.4446c0-.7687.3844-1.1636,1.0143-1.1636s.9822.3949.9822,1.1636v2.4446c0,.459.352.8113.8112.8113s.8113-.3523.8113-.8113v-2.9571c0-1.3237-.7047-2.1242-1.9428-2.1242-.8113,0-1.3026.4376-1.6762.9178v-.064c0-.459-.3523-.8113-.8112-.8113s-.8113.3523-.8113.8113v4.2275h0Zm9.2126,2.4767c1.1103,0,1.9216-.2242,2.4661-.7688.4802-.4802.726-1.2382.726-2.2524v-3.683c0-.459-.3524-.8113-.8116-.8113-.4589,0-.8113.3631-.8113.8008v.0105c-.4376-.4802-.9606-.8538-1.8467-.8538-1.313,0-2.5407.9606-2.5407,2.6688v.0212c0,1.7082,1.2064,2.6689,2.5407,2.6689.8648,0,1.3878-.3416,1.8683-.9287v.2775c0,1.0248-.5233,1.5585-1.6333,1.5585-.6086,0-1.1104-.1281-1.5801-.3415-.0853-.0321-.1709-.0533-.267-.0533-.3736,0-.6616.288-.6616.6619,0,.2987.1706.5122.4589.6295.6832.267,1.3238.3952,2.0923.3952h0Zm.1922-3.5442c-.8005,0-1.3879-.5233-1.3879-1.3238v-.0212c0-.7795.5978-1.3238,1.3879-1.3238.8007,0,1.3986.5443,1.3986,1.3238v.0212c0,.7793-.5979,1.3238-1.3986,1.3238h0Zm-34.5235,11.3395c0,.4592.3419.8007.8008.8007s.8113-.3415.8113-.8007v-3.7149l1.4199,2.1884c.1706.2562.3843.4164.6831.4164.2991,0,.5125-.1602.6832-.4164l1.4411-2.2204v3.7256c0,.4592.3523.822.8116.822.4589,0,.8217-.3628.8217-.822v-5.9355c0-.4589-.3628-.822-.8217-.822h-.1817c-.3201,0-.5658.1389-.7365.4164l-1.9964,3.2454-1.9854-3.2346c-.1602-.2455-.3952-.4272-.7475-.4272h-.1814c-.459,0-.8221.3631-.8221.822v5.9568h0Zm9.0743-6.3304c0,.4697.3949.7688.9074.7688.5122,0,.9073-.2991.9073-.7688v-.0212c0-.4697-.3951-.758-.9073-.758-.5125,0-.9074.2883-.9074.758v.0212h0Zm.0958,6.3199c0,.4589.3524.8112.8116.8112.4589,0,.8112-.3523.8112-.8112v-4.2276c0-.459-.3523-.8113-.8112-.8113-.4592,0-.8116.3523-.8116.8113v4.2276h0Zm3.1493,0c0,.4589.3523.8112.8113.8112s.8113-.3523.8113-.8112v-2.4446c0-.7688.3843-1.1637,1.0142-1.1637s.9822.3949.9822,1.1637v2.4446c0,.4589.3521.8112.8113.8112.4589,0,.8112-.3523.8112-.8112v-2.9571c0-1.3238-.7047-2.1243-1.9428-2.1243-.8113,0-1.3025.4376-1.6761.9178v-.064c0-.459-.3524-.8113-.8113-.8113s-.8113.3523-.8113.8113v4.2276h0Zm12.4047-6.2986c0-.4589-.3524-.8113-.8116-.8113-.4589,0-.8112.3524-.8112.8113v2.071c-.3841-.459-.9179-.8538-1.7828-.8538-1.3558,0-2.6047,1.046-2.6047,2.9568v.0215c0,1.9109,1.2705,2.9571,2.6047,2.9571.8541,0,1.3879-.3843,1.7828-.9289v.0749c0,.4589.3523.8112.8112.8112.4592,0,.8116-.3523.8116-.8112v-6.2986h0Zm-2.9891,2.5942c.7579,0,1.3878.6299,1.3878,1.5798v.0215c0,.9502-.6299,1.5798-1.3878,1.5798s-1.3987-.6296-1.3987-1.5798v-.0215c0-.9607.6407-1.5798,1.3987-1.5798Z" fill="#324058" fill-rule="evenodd"/>
    </g>
  </g>
</svg>