<svg xmlns="http://www.w3.org/2000/svg" xmlns:xlink="http://www.w3.org/1999/xlink" version="1.1" x="0px" y="0px" viewBox="0 0 750 937.5" style="enable-background:new 0 0 750 750;" xml:space="preserve"><path class="lineal-stroke" d="M725.2,375.8c0.2-6-2-12-6.5-16.4l-74.9-74.5c-8.6-8.6-22.5-8.5-31.1,0.1c-8.6,8.6-8.5,22.5,0.1,31.1l37.1,37H46  c-12.2,0-22,9.8-22,22s9.8,22,22,22h605.4l-38.3,38.3c-8.6,8.6-8.6,22.5,0,31.1c4.3,4.3,9.9,6.4,15.6,6.4c5.6,0,11.3-2.1,15.6-6.4  l74.5-74.5C723.2,387.5,725.3,381.6,725.2,375.8z"/></svg>